<?xml version="1.0" standalone="no"?>
<!DOCTYPE svg PUBLIC "-//W3C//DTD SVG 1.1//EN" "http://www.w3.org/Graphics/SVG/1.1/DTD/svg11.dtd" >
<svg xmlns="http://www.w3.org/2000/svg">
<metadata></metadata>
<defs>
<font id="mecanolight" horiz-adv-x="1286" >
<font-face units-per-em="2048" ascent="1516" descent="-532" />
<missing-glyph horiz-adv-x="532" />
<glyph unicode="&#xfb01;" horiz-adv-x="1298" d="M82 999v86h127v105q0 162 84.5 244t247.5 82h217v-89h-217q-127 0 -184.5 -56t-57.5 -181v-105h725v-999h223v-86h-561v86h248v913h-635v-999h-90v999h-127zM913 1382q0 43 12 56.5t56 13.5q40 0 50.5 -13.5t10.5 -56.5q0 -40 -9 -50.5t-52 -10.5q-46 0 -57 10.5 t-11 50.5z" />
<glyph unicode="&#xfb02;" horiz-adv-x="1542" d="M82 999v86h127v105q0 162 84.5 244t247.5 82h483v-1188q0 -125 57.5 -182.5t184.5 -57.5h204v-88h-204q-163 0 -247.5 83t-84.5 245v1099h-393q-127 0 -184.5 -56t-57.5 -181v-105h397v-86h-397v-999h-90v999h-127z" />
<glyph unicode="&#xfb03;" horiz-adv-x="2023" d="M82 999v86h127v105q0 326 330 326h221v-89h-221q-126 0 -183 -56.5t-57 -180.5v-105h635v105q0 162 84.5 244t247.5 82h217v-89h-217q-127 0 -184.5 -56t-57.5 -181v-105h725v-999h223v-86h-561v86h248v913h-635v-999h-90v999h-635v-999h-90v999h-127zM1638 1382 q0 43 11.5 56.5t54.5 13.5q41 0 51 -13t10 -57q0 -40 -9 -50.5t-52 -10.5q-44 0 -55 10.5t-11 50.5z" />
<glyph unicode="&#xfb04;" horiz-adv-x="2267" d="M82 999v86h127v105q0 326 330 326h221v-89h-221q-126 0 -183 -56.5t-57 -180.5v-105h635v105q0 162 84.5 244t247.5 82h483v-1188q0 -125 57.5 -182.5t184.5 -57.5h204v-88h-204q-163 0 -247.5 83t-84.5 245v1099h-393q-127 0 -184.5 -56t-57.5 -181v-105h397v-86h-397 v-999h-90v999h-635v-999h-90v999h-127z" />
<glyph horiz-adv-x="0" />
<glyph horiz-adv-x="682" />
<glyph unicode=" "  horiz-adv-x="532" />
<glyph unicode="&#x09;" horiz-adv-x="532" />
<glyph unicode="&#xa0;" horiz-adv-x="532" />
<glyph unicode="!" horiz-adv-x="546" d="M184 88q0 37 26.5 63.5t63.5 26.5q35 0 61.5 -26.5t26.5 -63.5q0 -36 -26 -62t-62 -26q-37 0 -63.5 25.5t-26.5 62.5zM213 1346q-3 67 49 67h25q52 0 49 -67l-25 -936h-73z" />
<glyph unicode="&#x22;" horiz-adv-x="841" d="M164 1309q0 43 2 61q3 43 45 43h16q42 0 45 -43q2 -18 2 -61q0 -51 -13 -223t-13 -212h-58q0 40 -13 212t-13 223zM567 1309q0 43 2 61q3 43 45 43h17q42 0 45 -43q2 -18 2 -61q0 -51 -13.5 -223t-13.5 -212h-57q0 40 -13.5 212t-13.5 223z" />
<glyph unicode="#" horiz-adv-x="1388" d="M184 524l15 80h182l74 404h-197l14 79h197l61 326h88l-61 -326h352l60 326h90l-62 -326h207l-14 -79h-205l-74 -404h219l-14 -80h-219l-57 -321h-90l59 321h-350l-60 -321h-90l60 321h-185zM471 604h350l76 404h-352z" />
<glyph unicode="$" horiz-adv-x="1273" d="M164 322v61h90v-61q0 -120 57.5 -177t180.5 -57h288q123 0 181.5 58t58.5 182v108q0 126 -58 184t-182 58h-288q-328 0 -328 326v79q0 163 82.5 246.5t245.5 83.5h98v197h90v-197h100q162 0 246 -84t84 -246v-32h-90v32q0 126 -58.5 185t-181.5 59h-288 q-127 0 -182.5 -56.5t-55.5 -187.5v-79q0 -124 57 -182t181 -58h288q162 0 246 -83t84 -245v-108q0 -162 -84 -245t-246 -83h-100v-199h-90v199h-98q-162 0 -245 81.5t-83 240.5z" />
<glyph unicode="%" horiz-adv-x="2267" d="M143 958v127q0 328 328 328h76q163 0 246.5 -82.5t83.5 -245.5v-127q0 -163 -83.5 -246t-246.5 -83h-76q-163 0 -245.5 83t-82.5 246zM233 958q0 -125 57 -183t181 -58h76q125 0 182 58t57 183v127q0 125 -57 182.5t-182 57.5h-76q-124 0 -181 -57.5t-57 -182.5v-127z M600 -174l983 1788l80 -45l-981 -1786zM1389 328v127q0 163 83 246t246 83h76q162 0 246 -83.5t84 -245.5v-127q0 -162 -84 -245t-246 -83h-76q-163 0 -246 82.5t-83 245.5zM1479 328q0 -125 57.5 -182.5t181.5 -57.5h76q126 0 183 57.5t57 182.5v127q0 125 -57.5 183 t-182.5 58h-76q-124 0 -181.5 -58t-57.5 -183v-127z" />
<glyph unicode="&#x26;" horiz-adv-x="1409" d="M184 328v131q0 210 138 282q-138 79 -138 285v57q0 163 83.5 246.5t246.5 83.5h289q149 0 231 -73t94 -216h-90q-9 103 -66 152t-169 49h-289q-126 0 -183 -58t-57 -184v-57q0 -126 55 -182t169 -56h73v-88h-88q-103 0 -156 -61.5t-53 -179.5v-131q0 -125 57 -182.5 t183 -57.5h289q122 0 179.5 57t57.5 179v376h-143v88h389v-88h-156v-376q0 -159 -83.5 -241.5t-243.5 -82.5h-289q-163 0 -246.5 82.5t-83.5 245.5z" />
<glyph unicode="'" horiz-adv-x="438" d="M164 1309q0 43 2 61q3 43 45 43h16q42 0 45 -43q2 -18 2 -61q0 -51 -13 -223t-13 -212h-58q0 40 -13 212t-13 223z" />
<glyph unicode="(" horiz-adv-x="571" d="M184 -16v1448q0 329 330 329h57v-88h-57q-125 0 -182.5 -57.5t-57.5 -183.5v-1448q0 -125 58 -184.5t182 -59.5h57v-88h-57q-330 0 -330 332z" />
<glyph unicode=")" horiz-adv-x="571" d="M0 -260h57q124 0 182 59.5t58 184.5v1448q0 126 -57.5 183.5t-182.5 57.5h-57v88h57q330 0 330 -329v-1448q0 -332 -330 -332h-57v88z" />
<glyph unicode="*" horiz-adv-x="1085" d="M164 1069v90h297l-148 262l78 45l150 -264l153 266l78 -47l-156 -262h306v-90h-304l154 -260l-80 -45l-151 262l-150 -262l-78 45l148 260h-297z" />
<glyph unicode="+" horiz-adv-x="1249" d="M184 598v88h394v391h90v-391h397v-88h-397v-401h-90v401h-394z" />
<glyph unicode="," horiz-adv-x="483" d="M102 -199l127 215q-47 23 -47 76q0 37 28 62.5t66 25.5q35 0 59.5 -25t24.5 -59q0 -37 -30 -80l-189 -243z" />
<glyph unicode="-" horiz-adv-x="1083" d="M164 571v88h756v-88h-756z" />
<glyph unicode="." horiz-adv-x="423" d="M123 88q0 37 25.5 63.5t62.5 26.5t63.5 -26.5t26.5 -63.5t-26.5 -62.5t-63.5 -25.5t-62.5 25.5t-25.5 62.5z" />
<glyph unicode="/" horiz-adv-x="1042" d="M102 0l738 1413h100l-735 -1413h-103z" />
<glyph unicode="0" d="M164 328v755q0 163 83.5 246.5t246.5 83.5h297q163 0 247 -83.5t84 -246.5v-755q0 -158 -84.5 -243t-246.5 -85h-297q-163 0 -246.5 82.5t-83.5 245.5zM254 328q0 -129 61 -187l582 1170q-50 14 -156 14h-247q-125 0 -182.5 -58t-57.5 -184v-755zM391 100q45 -12 154 -12 h246q127 0 184 57.5t57 182.5v755q0 129 -61 187z" />
<glyph unicode="1" horiz-adv-x="1003" d="M174 0v86h318v1241h-318v86h408v-1327h278v-86h-686z" />
<glyph unicode="2" horiz-adv-x="1243" d="M154 0v98l764 838q71 77 71 172v8q0 107 -57.5 158t-181.5 51h-265q-124 0 -181.5 -58t-57.5 -184v-32h-90v32q0 163 84 246.5t245 83.5h265q161 0 245 -75.5t84 -221.5v-14q0 -123 -86 -215l-731 -801h817v-86h-925z" />
<glyph unicode="3" horiz-adv-x="1259" d="M143 287h90q9 -102 66.5 -151.5t171.5 -49.5h293q127 0 184.5 58.5t57.5 183.5v127q0 115 -58 178t-166 63h-307v86h297q121 0 177.5 57.5t56.5 182.5v61q0 127 -57.5 185.5t-184.5 58.5h-293q-119 0 -174.5 -48t-63.5 -155h-88q7 144 91 216.5t235 72.5h293 q164 0 248 -83.5t84 -246.5v-61q0 -201 -138 -285q64 -37 101 -109t37 -173v-127q0 -163 -84 -245.5t-248 -82.5h-293q-151 0 -235 73.5t-93 213.5z" />
<glyph unicode="4" horiz-adv-x="1280" d="M133 305v117l543 1008l78 -41l-531 -986v-12h678v459h90v-459h156v-86h-156v-305h-90v305h-768z" />
<glyph unicode="5" horiz-adv-x="1284" d="M164 287h90q7 -103 64.5 -152t170.5 -49h297q128 0 186 58.5t58 183.5v202q0 124 -58 183t-186 59h-577v641h858v-86h-768v-469h487q165 0 249.5 -83t84.5 -245v-202q0 -162 -84.5 -245t-249.5 -83h-297q-151 0 -233.5 72.5t-91.5 214.5z" />
<glyph unicode="6" horiz-adv-x="1265" d="M164 328v755q0 163 83.5 246.5t246.5 83.5h528v-86h-528q-124 0 -182 -59t-58 -185v-315q64 92 240 92h297q163 0 247 -84t84 -246v-202q0 -162 -84 -245t-247 -83h-297q-163 0 -246.5 82.5t-83.5 245.5zM254 328q0 -125 58 -183.5t182 -58.5h297q127 0 184 58.5 t57 183.5v202q0 125 -57.5 184.5t-183.5 59.5h-297q-121 0 -180.5 -54t-59.5 -169v-223z" />
<glyph unicode="7" horiz-adv-x="1236" d="M133 1327v86h950v-86l-710 -1327h-101l709 1327h-848z" />
<glyph unicode="8" d="M164 328v127q0 236 172 295q-125 79 -125 272v61q0 163 85 246.5t249 83.5h196q164 0 248 -83.5t84 -246.5v-61q0 -195 -123 -272q172 -58 172 -295v-127q0 -162 -84 -245t-247 -83h-297q-163 0 -246.5 82.5t-83.5 245.5zM254 328q0 -125 58 -183.5t182 -58.5h297 q127 0 184 58.5t57 183.5v127q0 123 -57 182t-184 59h-295q-128 0 -185 -58.5t-57 -182.5v-127zM301 1022q0 -118 54 -179t175 -61h232q113 0 167 59t54 181v61q0 127 -57.5 185.5t-184.5 58.5h-196q-127 0 -185.5 -59t-58.5 -185v-61z" />
<glyph unicode="9" horiz-adv-x="1265" d="M143 883v200q0 163 84 246.5t248 83.5h295q164 0 248 -83.5t84 -246.5v-753q0 -163 -84 -246.5t-248 -83.5h-526v86h526q126 0 184 59t58 185v313q-65 -88 -242 -88h-295q-164 0 -248 83t-84 245zM233 883q0 -124 58 -183t184 -59h295q123 0 182.5 53.5t59.5 169.5v219 q0 126 -58 185t-184 59h-295q-127 0 -184.5 -58.5t-57.5 -185.5v-200z" />
<glyph unicode=":" horiz-adv-x="423" d="M123 88q0 37 25.5 63.5t62.5 26.5t63.5 -26.5t26.5 -63.5t-26.5 -62.5t-63.5 -25.5t-62.5 25.5t-25.5 62.5zM123 836q0 37 25.5 63.5t62.5 26.5t63.5 -26.5t26.5 -63.5t-26.5 -62.5t-63.5 -25.5t-62.5 25.5t-25.5 62.5z" />
<glyph unicode=";" horiz-adv-x="489" d="M102 -199l127 215q-47 23 -47 76q0 37 28 62.5t66 25.5q35 0 59.5 -25t24.5 -59q0 -37 -30 -80l-189 -243zM188 836q0 37 25.5 63.5t62.5 26.5t64 -26.5t27 -63.5q0 -36 -27 -62t-64 -26t-62.5 25.5t-25.5 62.5z" />
<glyph unicode="&#x3c;" horiz-adv-x="946" d="M184 596v37l533 500l45 -48l-459 -471l459 -471l-45 -47z" />
<glyph unicode="=" horiz-adv-x="1300" d="M184 346v86h932v-86h-932zM184 840v86h932v-86h-932z" />
<glyph unicode="&#x3e;" horiz-adv-x="946" d="M184 143l459 471l-459 471l45 48l533 -500v-37l-533 -500z" />
<glyph unicode="?" horiz-adv-x="1136" d="M102 1124q11 142 93.5 215.5t232.5 73.5h217q161 0 244.5 -83.5t83.5 -246.5v-100q0 -162 -83 -245t-245 -83h-84v-266h-90v352h174q123 0 180.5 58.5t57.5 183.5v100q0 126 -57.5 185t-180.5 59h-217q-113 0 -170.5 -49t-64.5 -154h-91zM428 88q0 37 26 63.5t64 26.5 q35 0 61.5 -26.5t26.5 -63.5q0 -36 -26 -62t-62 -26q-38 0 -64 25.5t-26 62.5z" />
<glyph unicode="@" horiz-adv-x="1605" d="M164 -66v822q0 329 330 329h618q330 0 330 -329v-428q0 -328 -330 -328h-295q-76 0 -135.5 19.5t-95.5 49.5t-59.5 71t-32.5 79.5t-9 79.5q0 38 8 75t30.5 79.5t58 73.5t96.5 52t139 21h535v156q0 125 -58 184t-182 59h-618q-124 0 -182 -58.5t-58 -182.5v-824 q0 -127 57.5 -186t182.5 -59h577v-86h-577q-330 0 -330 331zM575 299q0 -103 62.5 -158t179.5 -55h295q124 0 182 58.5t58 183.5v186h-535q-117 0 -179.5 -56t-62.5 -159z" />
<glyph unicode="A" horiz-adv-x="1306" d="M174 0v1083q0 330 330 330h297q332 0 332 -330v-1083h-91v584h-778v-584h-90zM264 670h778v413q0 125 -56.5 183.5t-184.5 58.5h-297q-126 0 -183 -59t-57 -183v-413z" />
<glyph unicode="B" horiz-adv-x="1265" d="M184 0v1413h609q161 0 244 -85t83 -247v-73q0 -107 -30.5 -173t-92.5 -106q146 -78 146 -291v-110q0 -162 -84.5 -245t-247.5 -83h-627zM274 88h537q126 0 184 57t58 183v110q0 126 -56 184t-182 58h-541v-592zM274 768h537q118 0 168.5 59.5t50.5 180.5v73 q0 121 -56 182.5t-181 61.5h-519v-557z" />
<glyph unicode="C" horiz-adv-x="1265" d="M164 328v755q0 163 83.5 246.5t246.5 83.5h297q331 0 331 -330v-32h-90v32q0 127 -57 184.5t-184 57.5h-297q-125 0 -182.5 -58t-57.5 -184v-755q0 -124 58 -182t182 -58h297q127 0 184 57.5t57 182.5v34h90v-34q0 -328 -331 -328h-297q-163 0 -246.5 82.5t-83.5 245.5z " />
<glyph unicode="D" horiz-adv-x="1306" d="M184 0v1413h627q332 0 332 -330v-755q0 -162 -84.5 -245t-247.5 -83h-627zM274 88h537q127 0 184.5 57.5t57.5 182.5v755q0 126 -57.5 184t-184.5 58h-537v-1237z" />
<glyph unicode="E" horiz-adv-x="1126" d="M184 0v1413h840v-86h-750v-557h578v-86h-578v-598h750v-86h-840z" />
<glyph unicode="F" horiz-adv-x="1105" d="M184 0v1413h840v-86h-750v-557h578v-86h-578v-684h-90z" />
<glyph unicode="G" horiz-adv-x="1275" d="M164 328v755q0 163 83.5 246.5t246.5 83.5h297q164 0 247.5 -83.5t83.5 -246.5v-32h-90v32q0 125 -57 183.5t-184 58.5h-297q-125 0 -182.5 -58t-57.5 -184v-755q0 -124 58 -182t182 -58h297q127 0 184 57.5t57 182.5v256h-399v86h489v-342q0 -162 -85 -245t-246 -83 h-297q-163 0 -246.5 82.5t-83.5 245.5z" />
<glyph unicode="H" horiz-adv-x="1327" d="M184 0v1413h90v-643h779v643h90v-1413h-90v684h-779v-684h-90z" />
<glyph unicode="I" horiz-adv-x="780" d="M92 0v86h250v1241h-250v86h596v-86h-256v-1241h256v-86h-596z" />
<glyph unicode="J" horiz-adv-x="1183" d="M113 328v34h90v-34q0 -123 57 -181.5t184 -58.5h238q124 0 181 57.5t57 182.5v997h-412v88h502v-1085q0 -162 -83 -245t-245 -83h-238q-331 0 -331 328z" />
<glyph unicode="K" horiz-adv-x="1161" d="M184 0v1413h90v-809l703 809h115l-506 -586l555 -827h-105l-512 756l-250 -287v-469h-90z" />
<glyph unicode="L" horiz-adv-x="1083" d="M184 0v1413h90v-1327h748v-86h-838z" />
<glyph unicode="M" horiz-adv-x="1437" d="M184 0v1413h131l402 -979h4l401 979h131v-1413h-90v1278l-393 -956h-102l-394 956v-1278h-90z" />
<glyph unicode="N" horiz-adv-x="1327" d="M184 0v1413h129l740 -1296v1296h90v-1413h-127l-742 1303v-1303h-90z" />
<glyph unicode="O" d="M164 328v755q0 163 83.5 246.5t246.5 83.5h297q164 0 247.5 -83.5t83.5 -246.5v-755q0 -328 -331 -328h-297q-163 0 -246.5 82.5t-83.5 245.5zM254 328q0 -122 58 -181t182 -59h297q126 0 183.5 58.5t57.5 181.5v755q0 125 -57 183.5t-184 58.5h-297q-124 0 -182 -58.5 t-58 -183.5v-755z" />
<glyph unicode="P" horiz-adv-x="1245" d="M184 0v1413h627q163 0 247.5 -83.5t84.5 -246.5v-202q0 -163 -84.5 -246.5t-247.5 -83.5h-537v-551h-90zM274 639h537q127 0 184.5 58t57.5 184v202q0 126 -57.5 184t-184.5 58h-537v-686z" />
<glyph unicode="Q" d="M164 328v755q0 163 83.5 246.5t246.5 83.5h297q164 0 247.5 -83.5t83.5 -246.5v-755q0 -328 -331 -328h-103v-293h-90v293h-104q-163 0 -246.5 82.5t-83.5 245.5zM254 328q0 -122 58 -181t182 -59h104v141h90v-141h103q126 0 183.5 58.5t57.5 181.5v755q0 125 -57 183.5 t-184 58.5h-297q-124 0 -182 -58.5t-58 -183.5v-755z" />
<glyph unicode="R" horiz-adv-x="1255" d="M184 0v1413h627q163 0 247.5 -84.5t84.5 -247.5v-82q0 -315 -322 -323h-6l305 -676h-100l-303 674h-443v-674h-90zM274 762h533q128 0 187 56.5t59 180.5v82q0 125 -60 184.5t-182 59.5h-537v-563z" />
<glyph unicode="S" horiz-adv-x="1243" d="M143 322v61h90v-61q0 -122 58 -178t184 -56h297q123 0 180.5 58t57.5 182v121q0 125 -57 183t-181 58h-297q-332 0 -332 328v65q0 163 84 246.5t248 83.5h297q328 0 328 -330v-32h-90v32q0 125 -58 183.5t-180 58.5h-297q-127 0 -184.5 -58t-57.5 -184v-65 q0 -125 57.5 -182.5t184.5 -57.5h297q328 0 328 -329v-121q0 -328 -328 -328h-297q-164 0 -248 81t-84 241z" />
<glyph unicode="T" horiz-adv-x="1060" d="M41 1325v88h979v-88h-445v-1327h-90v1327h-444z" />
<glyph unicode="U" horiz-adv-x="1306" d="M174 328v1085h90v-1085q0 -122 58 -181t182 -59h297q126 0 183.5 58.5t57.5 181.5v1085h91v-1085q0 -163 -84 -245.5t-248 -82.5h-297q-163 0 -246.5 82.5t-83.5 245.5z" />
<glyph unicode="V" horiz-adv-x="1105" d="M20 1413h95l434 -1319h8l434 1319h94l-464 -1413h-136z" />
<glyph unicode="W" horiz-adv-x="1675" d="M20 1413h93l331 -1315h5l333 1315h111l336 -1315h4l330 1315h92l-357 -1413h-139l-319 1260h-4l-320 -1260h-139z" />
<glyph unicode="X" horiz-adv-x="1105" d="M31 0l469 745l-418 668h106l365 -582l365 582h106l-418 -668l469 -745h-106l-416 662l-416 -662h-106z" />
<glyph unicode="Y" horiz-adv-x="1032" d="M20 1413h103l393 -731l395 731h101l-451 -835v-578h-90v578z" />
<glyph unicode="Z" horiz-adv-x="1126" d="M82 0v90l854 1235h-850v88h956v-88l-854 -1237h856v-88h-962z" />
<glyph unicode="[" horiz-adv-x="583" d="M184 -348v2109h400v-88h-310v-1933h310v-88h-400z" />
<glyph unicode="\" horiz-adv-x="1042" d="M102 1413h103l735 -1413h-102z" />
<glyph unicode="]" horiz-adv-x="583" d="M0 -260h309v1933h-309v88h399v-2109h-399v88z" />
<glyph unicode="^" horiz-adv-x="1138" d="M164 1001l342 412h127l342 -412l-62 -47l-340 363h-8l-340 -363z" />
<glyph unicode="_" horiz-adv-x="1382" d="M0 -180h1382v-88h-1382v88z" />
<glyph unicode="`" horiz-adv-x="546" d="M102 1618q0 18 17 35q16 16 35 16t34 -18l256 -285l-41 -41l-284 258q-17 17 -17 35z" />
<glyph unicode="a" horiz-adv-x="1222" d="M123 295q0 39 8 76t30.5 78.5t57.5 72t95.5 50.5t138.5 20h536v164q0 125 -57.5 183t-181.5 58h-271q-120 0 -175.5 -48.5t-63.5 -149.5h-90q10 140 94.5 213t234.5 73h271q163 0 246 -83t83 -246v-428q0 -163 -83 -245.5t-246 -82.5h-297q-93 0 -161 28.5t-103 74.5 t-50.5 94t-15.5 98zM213 295q0 -101 61.5 -155t178.5 -54h297q124 0 181.5 58.5t57.5 183.5v178h-536q-117 0 -178.5 -53.5t-61.5 -157.5z" />
<glyph unicode="b" horiz-adv-x="1265" d="M164 328v1188h90v-521q77 90 242 90h295q164 0 247.5 -83t83.5 -246v-428q0 -328 -331 -328h-295q-164 0 -248 82.5t-84 245.5zM254 328q0 -125 58 -182.5t184 -57.5h295q127 0 184 57.5t57 182.5v428q0 125 -57 183t-184 58h-295q-242 0 -242 -221v-448z" />
<glyph unicode="c" horiz-adv-x="1222" d="M143 328v428q0 163 84 246t248 83h297q307 0 328 -288h-90q-8 103 -65.5 151.5t-172.5 48.5h-297q-126 0 -184 -57.5t-58 -183.5v-428q0 -125 57.5 -182.5t184.5 -57.5h297q114 0 170 47.5t68 151.5h90q-11 -140 -94 -213.5t-234 -73.5h-297q-164 0 -248 82.5t-84 245.5z " />
<glyph unicode="d" horiz-adv-x="1265" d="M143 328v428q0 163 84 246t248 83h297q165 0 240 -90v521h90v-1188q0 -163 -83.5 -245.5t-246.5 -82.5h-297q-164 0 -248 82.5t-84 245.5zM233 328q0 -125 57.5 -182.5t184.5 -57.5h297q124 0 182 58t58 182v448q0 221 -240 221h-297q-127 0 -184.5 -58t-57.5 -183v-428z " />
<glyph unicode="e" horiz-adv-x="1204" d="M143 328v428q0 163 84 246t248 83h297q93 0 161 -27.5t103 -72.5t50.5 -92.5t15.5 -99.5q0 -38 -8 -74t-30.5 -75.5t-57.5 -69t-95.5 -49t-138.5 -19.5h-539v-178q0 -125 57.5 -182.5t184.5 -57.5h553v-88h-553q-164 0 -248 82.5t-84 245.5zM233 592h539q116 0 178 50.5 t62 150.5t-62.5 152t-177.5 52h-297q-127 0 -184.5 -58t-57.5 -183v-164z" />
<glyph unicode="f" horiz-adv-x="667" d="M82 999v86h127v103q0 163 83.5 245.5t246.5 82.5h221v-89h-221q-126 0 -183 -57t-57 -182v-103h344v-86h-344v-999h-90v999h-127z" />
<glyph unicode="g" horiz-adv-x="1265" d="M143 328v428q0 163 84 246t248 83h297q163 0 246.5 -83t83.5 -246v-897q0 -164 -83.5 -247t-246.5 -83h-448v88h448q125 0 182.5 57t57.5 185v231q-68 -90 -240 -90h-297q-164 0 -248 82.5t-84 245.5zM233 328q0 -125 57.5 -182.5t184.5 -57.5h297q122 0 181 56.5 t59 181.5v430q0 125 -58 183t-182 58h-297q-127 0 -184.5 -58t-57.5 -183v-428z" />
<glyph unicode="h" horiz-adv-x="1296" d="M174 0v1516h90v-521q72 90 242 90h297q330 0 330 -329v-756h-91v756q0 125 -57 183t-182 58h-297q-123 0 -182.5 -55t-59.5 -168v-774h-90z" />
<glyph unicode="i" horiz-adv-x="704" d="M92 0v86h248v913h-248v86h338v-999h223v-86h-561zM319 1382q0 43 11.5 56.5t54.5 13.5q41 0 52.5 -13.5t11.5 -56.5q0 -39 -10.5 -50t-53.5 -11q-45 0 -55.5 10.5t-10.5 50.5z" />
<glyph unicode="j" horiz-adv-x="573" d="M-133 -383h207q125 0 182 57t57 185v1140h-247v86h337v-1226q0 -330 -329 -330h-207v88zM291 1382q0 43 11 56.5t54 13.5q41 0 52.5 -13.5t11.5 -56.5q0 -39 -10.5 -50t-53.5 -11q-44 0 -54.5 10.5t-10.5 50.5z" />
<glyph unicode="k" horiz-adv-x="1044" d="M174 0v1516h90v-1012l582 581h129l-440 -438l479 -647h-113l-430 584l-207 -207v-377h-90z" />
<glyph unicode="l" horiz-adv-x="774" d="M164 328v1188h90v-1188q0 -125 57.5 -182.5t184.5 -57.5h206v-88h-206q-332 0 -332 328z" />
<glyph unicode="m" horiz-adv-x="1837" d="M164 0v756q0 163 84 246t248 83h137q215 0 285 -143q73 143 288 143h135q163 0 247.5 -83.5t84.5 -245.5v-756h-90v756q0 125 -57.5 183t-184.5 58h-135q-128 0 -185.5 -57t-57.5 -184v-756h-91v756q0 125 -57 183t-182 58h-137q-127 0 -184.5 -58t-57.5 -183v-756h-90z " />
<glyph unicode="n" d="M164 0v756q0 163 84 246t248 83h295q164 0 247.5 -83t83.5 -246v-756h-90v756q0 125 -57 183t-184 58h-295q-127 0 -184.5 -58t-57.5 -183v-756h-90z" />
<glyph unicode="o" horiz-adv-x="1245" d="M143 328v428q0 163 84 246t248 83h297q163 0 246.5 -83t83.5 -246v-428q0 -163 -83.5 -245.5t-246.5 -82.5h-297q-164 0 -248 82.5t-84 245.5zM233 328q0 -125 57.5 -182.5t184.5 -57.5h297q124 0 182 58t58 182v428q0 125 -58 183t-182 58h-297q-127 0 -184.5 -58 t-57.5 -183v-428z" />
<glyph unicode="p" horiz-adv-x="1265" d="M164 -471v1227q0 163 84 246t248 83h295q164 0 247.5 -83t83.5 -246v-428q0 -328 -331 -328h-295q-165 0 -242 90v-561h-90zM254 309q0 -221 242 -221h295q127 0 184 57.5t57 182.5v428q0 125 -57 183t-184 58h-295q-126 0 -184 -58t-58 -183v-447z" />
<glyph unicode="q" horiz-adv-x="1265" d="M143 328v428q0 163 84 246t248 83h297q163 0 246.5 -83t83.5 -246v-1227h-90v561q-77 -90 -240 -90h-297q-164 0 -248 82.5t-84 245.5zM233 328q0 -125 57.5 -182.5t184.5 -57.5h297q240 0 240 221v447q0 125 -58 183t-182 58h-297q-127 0 -184.5 -58t-57.5 -183v-428z " />
<glyph unicode="r" horiz-adv-x="894" d="M72 0v86h204v670q0 162 84 245.5t246 83.5h207v-88h-207q-124 0 -181.5 -58t-57.5 -183v-670h313v-86h-608z" />
<glyph unicode="s" horiz-adv-x="1198" d="M133 795q0 137 89 213.5t237 76.5h268q151 0 234 -72.5t92 -211.5h-90q-9 103 -65.5 149.5t-170.5 46.5h-268q-124 0 -180 -54.5t-56 -147.5q0 -99 58.5 -144t181.5 -45h272q153 0 241.5 -81t88.5 -228q0 -141 -88.5 -219t-241.5 -78h-272q-150 0 -233.5 73.5 t-94.5 213.5h92q9 -104 65 -152.5t171 -48.5h272q118 0 179 54.5t61 154.5q0 104 -61.5 163.5t-178.5 59.5h-272q-158 0 -244 71t-86 206z" />
<glyph unicode="t" horiz-adv-x="864" d="M92 999v86h158v349h90v-349h416v-86h-416v-671q0 -124 57.5 -182t180.5 -58h204v-88h-204q-162 0 -245 83t-83 245v671h-158z" />
<glyph unicode="u" d="M164 328v757h90v-757q0 -125 57.5 -182.5t184.5 -57.5h297q124 0 181.5 57.5t57.5 182.5v757h90v-757q0 -163 -83 -245.5t-246 -82.5h-297q-164 0 -248 83t-84 245z" />
<glyph unicode="v" horiz-adv-x="978" d="M31 1085h94l356 -995h17l356 995h94l-387 -1085h-143z" />
<glyph unicode="w" horiz-adv-x="1568" d="M31 1085h94l315 -995h15l297 995h63l297 -995h16l316 995h94l-346 -1085h-145l-263 877l-262 -877h-145z" />
<glyph unicode="x" horiz-adv-x="989" d="M61 0l379 571l-342 514h109l289 -434l288 434h109l-344 -514l379 -571h-107l-325 489l-328 -489h-107z" />
<glyph unicode="y" horiz-adv-x="1046" d="M61 1085h93l190 -690q16 -58 32 -99t40 -78t59 -56t80 -19h98l219 942h93l-363 -1556h-90l121 526h-78q-66 0 -116 25t-84.5 75.5t-56 104.5t-44.5 135z" />
<glyph unicode="z" horiz-adv-x="1048" d="M102 0v90l727 905v4h-727v86h842v-88l-729 -907v-4h731v-86h-844z" />
<glyph unicode="{" horiz-adv-x="829" d="M164 662v90q128 5 183.5 58t55.5 179v443q0 329 330 329h96v-88h-96q-125 0 -182 -57.5t-57 -183.5v-443q0 -204 -136 -280q77 -48 106.5 -118.5t29.5 -168.5v-438q0 -125 57.5 -184.5t181.5 -59.5h96v-88h-96q-330 0 -330 332v438q0 131 -55 183t-184 57z" />
<glyph unicode="|" horiz-adv-x="458" d="M184 -471v1987h90v-1987h-90z" />
<glyph unicode="}" horiz-adv-x="827" d="M0 -260h96q124 0 182 59.5t58 184.5v438q0 100 28.5 169.5t106.5 117.5q-135 75 -135 280v443q0 126 -57.5 183.5t-182.5 57.5h-96v88h96q330 0 330 -329v-443q0 -128 55 -180t183 -57v-90q-128 -5 -183 -58t-55 -182v-438q0 -332 -330 -332h-96v88z" />
<glyph unicode="~" horiz-adv-x="1378" d="M164 575q59 97 126 146t165 49q112 0 243 -74q48 -26 75.5 -39.5t72 -27t82.5 -13.5q40 0 70 9t56.5 32.5t42 43t44.5 61.5l73 -45q-54 -91 -123 -140t-167 -49q-88 0 -183 45q-18 9 -68 35t-76.5 38.5t-68.5 25t-77 12.5q-40 0 -68.5 -9t-54.5 -34t-41 -45t-45 -66z" />
<glyph unicode="&#xa1;" horiz-adv-x="546" d="M184 1325q0 37 26.5 62.5t63.5 25.5q36 0 62 -26t26 -62q0 -37 -26.5 -63.5t-61.5 -26.5q-37 0 -63.5 26.5t-26.5 63.5zM213 68l25 936h73l25 -936q3 -68 -49 -68h-25q-52 0 -49 68z" />
<glyph unicode="&#xa2;" horiz-adv-x="1243" d="M143 328v428q0 163 82.5 246t245.5 83h117v197h90v-197h90q162 0 247 -81t85 -238v-59h-90v59q0 120 -58.5 175.5t-183.5 55.5h-297q-124 0 -181 -58t-57 -183v-428q0 -125 57 -182.5t181 -57.5h297q125 0 183.5 55.5t58.5 175.5v60h90v-60q0 -159 -84.5 -239t-247.5 -80 h-90v-199h-90v199h-117q-328 0 -328 328z" />
<glyph unicode="&#xa3;" horiz-adv-x="1245" d="M164 0v86h180v510h-180v88h180v399q0 162 84 246t246 84h92q164 0 247 -83.5t83 -246.5v-41h-90v41q0 126 -57.5 184t-182.5 58h-92q-124 0 -182 -58.5t-58 -183.5v-399h365v-88h-365v-510h688v-86h-958z" />
<glyph unicode="&#xa5;" horiz-adv-x="1277" d="M143 1413h101l395 -735l395 735h101l-424 -786h319v-86h-346v-213h346v-88h-346v-240h-90v240h-346v88h346v213h-346v86h319z" />
<glyph unicode="&#xa7;" horiz-adv-x="1300" d="M184 637q0 88 36.5 149.5t98.5 92.5q-135 73 -135 239q0 141 87.5 218t240.5 77h268q310 0 328 -293h-90q-7 106 -65.5 156.5t-172.5 50.5h-268q-124 0 -181 -58t-57 -151q0 -99 59 -145.5t179 -46.5h270q147 0 240.5 -74.5t93.5 -220.5q0 -80 -34.5 -142t-100.5 -92 q68 -35 100.5 -108t32.5 -162q0 -134 -87.5 -213.5t-240.5 -79.5h-272q-151 0 -234 73t-94 214h90q11 -105 67 -153t171 -48h272q118 0 179 54.5t61 152.5q0 111 -60.5 171t-179.5 60h-325q-125 0 -201 75t-76 204zM274 637q0 -98 60 -144.5t180 -46.5h291q221 0 221 185 q0 102 -64 154.5t-176 52.5h-274q-238 0 -238 -201z" />
<glyph unicode="&#xa8;" horiz-adv-x="741" d="M102 1450q0 42 11.5 55t54.5 13t54 -13t11 -55t-11 -55t-54 -13t-54.5 13t-11.5 55zM508 1450q0 42 11 55t54 13t54.5 -13t11.5 -55t-11.5 -55t-54.5 -13t-54 13t-11 55z" />
<glyph unicode="&#xa9;" horiz-adv-x="1581" d="M164 328v620q0 328 330 328h593q330 0 330 -328v-620q0 -163 -83.5 -245.5t-246.5 -82.5h-593q-163 0 -246.5 82.5t-83.5 245.5zM254 328q0 -122 58 -181t182 -59h593q126 0 183 58.5t57 181.5v620q0 128 -56.5 185t-183.5 57h-593q-125 0 -182.5 -57.5t-57.5 -184.5 v-620zM541 465v350q0 85 45.5 129.5t132.5 44.5h141q178 0 178 -176v-33h-82v33q0 51 -22 73.5t-74 22.5h-141q-49 0 -71.5 -22.5t-22.5 -71.5v-350q0 -50 21 -72t73 -22h141q51 0 73.5 21.5t22.5 70.5v33h82v-33q0 -172 -178 -172h-141q-178 0 -178 174z" />
<glyph unicode="&#xaa;" horiz-adv-x="770" d="M143 1034q0 25 7.5 49.5t24.5 50.5t52.5 42t85.5 16h242v49q0 102 -100 102h-129q-50 0 -73 -19.5t-28 -63.5h-69q11 153 170 153h129q172 0 172 -172v-192q0 -170 -172 -170h-142q-48 0 -83 15t-53 39.5t-26 49.5t-8 51zM213 1034q0 -41 26.5 -64.5t73.5 -23.5h142 q100 0 100 103v71h-242q-47 0 -73.5 -22.5t-26.5 -63.5z" />
<glyph unicode="&#xab;" horiz-adv-x="1284" d="M164 582v65l452 414l41 -51l-370 -394v-4l370 -393l-41 -51zM629 582v65l452 414l39 -51l-370 -394v-4l370 -393l-39 -51z" />
<glyph unicode="&#xad;" horiz-adv-x="1083" d="M164 571v88h756v-88h-756z" />
<glyph unicode="&#xae;" horiz-adv-x="1581" d="M164 328v620q0 328 330 328h593q330 0 330 -328v-620q0 -163 -83.5 -245.5t-246.5 -82.5h-593q-163 0 -246.5 82.5t-83.5 245.5zM254 328q0 -122 58 -181t182 -59h593q126 0 183 58.5t57 181.5v620q0 128 -56.5 185t-183.5 57h-593q-125 0 -182.5 -57.5t-57.5 -184.5 v-620zM541 291v700h319q178 0 178 -178v-37q0 -155 -147 -172q109 -228 147 -313h-92l-147 309h-174v-309h-84zM625 682h231q100 0 100 98v29q0 51 -24 75.5t-76 24.5h-231v-227z" />
<glyph unicode="&#xaf;" horiz-adv-x="815" d="M102 1413v86h611v-86h-611z" />
<glyph unicode="&#xb0;" horiz-adv-x="720" d="M123 1176q0 98 69.5 167.5t167.5 69.5t168 -69.5t70 -167.5t-70 -168t-168 -70t-167.5 70t-69.5 168zM207 1176q0 -65 44.5 -109.5t108.5 -44.5t109 45t45 109q0 63 -45 108t-109 45t-108.5 -45t-44.5 -108z" />
<glyph unicode="&#xb4;" horiz-adv-x="546" d="M102 1366l256 285q15 18 35 18q19 0 35 -16t16 -35t-16 -35l-285 -258z" />
<glyph unicode="&#xb6;" horiz-adv-x="1298" d="M164 881v202q0 163 83.5 246.5t246.5 83.5h346v-1649h-90v785h-256q-163 0 -246.5 84t-83.5 248zM254 881q0 -127 57.5 -184.5t182.5 -57.5h256v684h-256q-125 0 -182.5 -57t-57.5 -183v-202zM1004 -236v1649h90v-1649h-90z" />
<glyph unicode="&#xb7;" horiz-adv-x="520" d="M164 711q0 41 27.5 69.5t66.5 28.5q41 0 69.5 -28.5t28.5 -69.5q0 -40 -28.5 -68.5t-69.5 -28.5q-38 0 -66 28.5t-28 68.5z" />
<glyph unicode="&#xb8;" horiz-adv-x="397" d="M102 -319l80 356q5 22 12 30.5t27 8.5q13 0 37 -4q16 -3 27.5 -14t7.5 -23l-123 -373z" />
<glyph unicode="&#xba;" horiz-adv-x="768" d="M143 1053v188q0 172 170 172h142q170 0 170 -172v-188q0 -85 -43.5 -128.5t-126.5 -43.5h-142q-170 0 -170 172zM213 1053q0 -55 23.5 -80t76.5 -25h142q100 0 100 105v188q0 53 -24.5 77.5t-75.5 24.5h-142q-54 0 -77 -24t-23 -78v-188z" />
<glyph unicode="&#xbb;" horiz-adv-x="1284" d="M164 219l373 393v4l-373 394l41 51l452 -414v-65l-452 -414zM629 219l370 393v4l-370 394l39 51l452 -414v-65l-452 -414z" />
<glyph unicode="&#xbf;" horiz-adv-x="1136" d="M164 330v100q0 162 84 245t246 83h81v266h91v-352h-172q-123 0 -181.5 -59t-58.5 -183v-100q0 -126 58.5 -185t181.5 -59h215q113 0 170.5 49t66.5 154h88q-11 -142 -93 -215.5t-232 -73.5h-215q-162 0 -246 84t-84 246zM530 1325q0 36 27 62t64 26t62.5 -25.5 t25.5 -62.5t-25.5 -63.5t-62.5 -26.5t-64 26.5t-27 63.5z" />
<glyph unicode="&#xc0;" horiz-adv-x="1306" d="M174 0v1083q0 330 330 330h297q332 0 332 -330v-1083h-91v584h-778v-584h-90zM264 670h778v413q0 125 -56.5 183.5t-184.5 58.5h-297q-126 0 -183 -59t-57 -183v-413zM399 1925q0 18 17 35q16 16 35 16t34 -18l256 -285l-41 -41l-284 258q-17 17 -17 35z" />
<glyph unicode="&#xc1;" horiz-adv-x="1306" d="M174 0v1083q0 330 330 330h297q332 0 332 -330v-1083h-91v584h-778v-584h-90zM264 670h778v413q0 125 -56.5 183.5t-184.5 58.5h-297q-126 0 -183 -59t-57 -183v-413zM543 1673l256 285q15 18 35 18q18 0 34 -16q17 -17 17 -35t-17 -35l-284 -258z" />
<glyph unicode="&#xc2;" horiz-adv-x="1306" d="M174 0v1083q0 330 330 330h297q332 0 332 -330v-1083h-91v584h-778v-584h-90zM264 670h778v413q0 125 -56.5 183.5t-184.5 58.5h-297q-126 0 -183 -59t-57 -183v-413zM369 1645l266 307h37l266 -307l-39 -37l-246 247l-245 -247z" />
<glyph unicode="&#xc3;" horiz-adv-x="1306" d="M174 0v1083q0 330 330 330h297q332 0 332 -330v-1083h-91v584h-778v-584h-90zM264 670h778v413q0 125 -56.5 183.5t-184.5 58.5h-297q-126 0 -183 -59t-57 -183v-413zM266 1667q29 83 84.5 132.5t132.5 49.5q47 0 96.5 -21t84.5 -45.5t78.5 -45.5t80.5 -21q78 0 144 135 l71 -32q-17 -33 -25 -47t-24.5 -41t-30 -39t-34 -27t-44.5 -21t-53 -6q-43 0 -93.5 20.5t-88.5 45t-82 45t-76 20.5q-96 0 -145 -133z" />
<glyph unicode="&#xc4;" horiz-adv-x="1306" d="M174 0v1083q0 330 330 330h297q332 0 332 -330v-1083h-91v584h-778v-584h-90zM264 670h778v413q0 125 -56.5 183.5t-184.5 58.5h-297q-126 0 -183 -59t-57 -183v-413zM385 1757q0 42 11.5 55t54.5 13t54 -13t11 -55t-11 -54.5t-54 -12.5t-54.5 13t-11.5 54zM791 1757 q0 42 11 55t54 13t54.5 -13t11.5 -55q0 -41 -11.5 -54t-54.5 -13t-54 12.5t-11 54.5z" />
<glyph unicode="&#xc5;" horiz-adv-x="1306" d="M174 0v1083q0 330 330 330h297q332 0 332 -330v-1083h-91v584h-778v-584h-90zM264 670h778v413q0 125 -56.5 183.5t-184.5 58.5h-297q-126 0 -183 -59t-57 -183v-413zM514 1808q0 58 41 98t98 40q58 0 99 -40t41 -98t-41 -97.5t-99 -39.5t-98.5 39.5t-40.5 97.5z M578 1808q0 -31 22 -53t53 -22t53.5 22t22.5 53t-22.5 53.5t-53.5 22.5t-53 -22.5t-22 -53.5z" />
<glyph unicode="&#xc6;" horiz-adv-x="1835" d="M174 0v1083q0 163 83.5 246.5t246.5 83.5h1229v-86h-678v-588h504v-86h-504v-567h678v-86h-766v653h-703v-653h-90zM264 739h703v588h-463q-127 0 -183.5 -58.5t-56.5 -185.5v-344z" />
<glyph unicode="&#xc7;" horiz-adv-x="1265" d="M164 328v755q0 163 83.5 246.5t246.5 83.5h297q331 0 331 -330v-32h-90v32q0 127 -57 184.5t-184 57.5h-297q-125 0 -182.5 -58t-57.5 -184v-755q0 -125 57 -182.5t183 -57.5h297q127 0 184 57.5t57 182.5v34h90v-34q0 -328 -331 -328h-80l-115 -338l-66 19l72 319h-108 q-163 0 -246.5 82.5t-83.5 245.5z" />
<glyph unicode="&#xc8;" horiz-adv-x="1126" d="M184 0v1413h840v-86h-750v-557h578v-86h-578v-598h750v-86h-840zM330 1925q0 19 16 35t35 16q20 0 35 -18l256 -285l-41 -41l-285 258q-16 16 -16 35z" />
<glyph unicode="&#xc9;" horiz-adv-x="1126" d="M184 0v1413h840v-86h-750v-557h578v-86h-578v-598h750v-86h-840zM453 1673l256 285q15 18 34 18t35 -16q17 -17 17 -35t-17 -35l-284 -258z" />
<glyph unicode="&#xca;" horiz-adv-x="1126" d="M184 0v1413h840v-86h-750v-557h578v-86h-578v-598h750v-86h-840zM299 1645l266 307h37l266 -307l-39 -37l-245 247l-246 -247z" />
<glyph unicode="&#xcb;" horiz-adv-x="1126" d="M184 0v1413h840v-86h-750v-557h578v-86h-578v-598h750v-86h-840zM315 1757q0 42 11.5 55t54.5 13t54 -13t11 -55t-11 -54.5t-54 -12.5t-54.5 13t-11.5 54zM721 1757q0 42 11 55t54 13t54.5 -13t11.5 -55q0 -41 -11.5 -54t-54.5 -13t-54 12.5t-11 54.5z" />
<glyph unicode="&#xcc;" horiz-adv-x="780" d="M92 0v86h250v1241h-250v86h596v-86h-256v-1241h256v-86h-596zM219 1925q0 18 17 35q16 16 34 16q20 0 35 -18l256 -285l-41 -41l-284 258q-17 17 -17 35z" />
<glyph unicode="&#xcd;" horiz-adv-x="780" d="M92 0v86h250v1241h-250v86h596v-86h-256v-1241h256v-86h-596zM219 1673l256 285q15 18 35 18q19 0 35 -16t16 -35t-16 -35l-285 -258z" />
<glyph unicode="&#xce;" horiz-adv-x="780" d="M92 0v86h250v1241h-250v86h596v-86h-256v-1241h256v-86h-596zM104 1645l267 307h37l266 -307l-39 -37l-246 247l-246 -247z" />
<glyph unicode="&#xcf;" horiz-adv-x="780" d="M92 0v86h250v1241h-250v86h596v-86h-256v-1241h256v-86h-596zM121 1757q0 42 11 55t54 13t54.5 -13t11.5 -55q0 -41 -11.5 -54t-54.5 -13t-54 12.5t-11 54.5zM526 1757q0 42 11.5 55t54.5 13t54 -13t11 -55t-11 -54.5t-54 -12.5t-54.5 13t-11.5 54z" />
<glyph unicode="&#xd0;" horiz-adv-x="1331" d="M41 686v88h168v639h631q162 0 244.5 -83.5t82.5 -246.5v-755q0 -328 -327 -328h-631v686h-168zM299 88h541q123 0 180 57.5t57 182.5v755q0 126 -57 184t-180 58h-541v-551h354v-88h-354v-598z" />
<glyph unicode="&#xd1;" horiz-adv-x="1327" d="M184 0v1413h129l740 -1296v1296h90v-1413h-127l-742 1303v-1303h-90zM276 1667q29 83 85 132.5t133 49.5q47 0 96.5 -21t84.5 -45.5t78.5 -45.5t80.5 -21q44 0 78 35.5t65 99.5l72 -32q-17 -33 -25 -47t-24.5 -41t-30 -39t-34 -27t-44.5 -21t-53 -6q-43 0 -93.5 20.5 t-88.5 45t-82 45t-76 20.5q-97 0 -146 -133z" />
<glyph unicode="&#xd2;" d="M164 328v755q0 163 83.5 246.5t246.5 83.5h297q164 0 247.5 -83.5t83.5 -246.5v-755q0 -328 -331 -328h-297q-163 0 -246.5 82.5t-83.5 245.5zM254 328q0 -122 58 -181t182 -59h297q126 0 183.5 58.5t57.5 181.5v755q0 125 -57 183.5t-184 58.5h-297q-124 0 -182 -58.5 t-58 -183.5v-755zM389 1925q0 18 17 35q16 16 34 16q20 0 35 -18l256 -285l-41 -41l-284 258q-17 17 -17 35z" />
<glyph unicode="&#xd3;" d="M164 328v755q0 163 83.5 246.5t246.5 83.5h297q164 0 247.5 -83.5t83.5 -246.5v-755q0 -328 -331 -328h-297q-163 0 -246.5 82.5t-83.5 245.5zM254 328q0 -122 58 -181t182 -59h297q126 0 183.5 58.5t57.5 181.5v755q0 125 -57 183.5t-184 58.5h-297q-124 0 -182 -58.5 t-58 -183.5v-755zM532 1673l256 285q15 18 35 18q19 0 35 -16t16 -35t-16 -35l-285 -258z" />
<glyph unicode="&#xd4;" d="M164 328v755q0 163 83.5 246.5t246.5 83.5h297q164 0 247.5 -83.5t83.5 -246.5v-755q0 -328 -331 -328h-297q-163 0 -246.5 82.5t-83.5 245.5zM254 328q0 -122 58 -181t182 -59h297q126 0 183.5 58.5t57.5 181.5v755q0 125 -57 183.5t-184 58.5h-297q-124 0 -182 -58.5 t-58 -183.5v-755zM358 1645l267 307h37l266 -307l-39 -37l-246 247l-246 -247z" />
<glyph unicode="&#xd5;" d="M164 328v755q0 163 83.5 246.5t246.5 83.5h297q164 0 247.5 -83.5t83.5 -246.5v-755q0 -328 -331 -328h-297q-163 0 -246.5 82.5t-83.5 245.5zM254 328q0 -122 58 -181t182 -59h297q126 0 183.5 58.5t57.5 181.5v755q0 125 -57 183.5t-184 58.5h-297q-124 0 -182 -58.5 t-58 -183.5v-755zM256 1667q29 83 84.5 132.5t132.5 49.5q47 0 96.5 -21t84.5 -45.5t78.5 -45.5t80.5 -21q44 0 78 35.5t65 99.5l72 -32q-17 -33 -25 -47t-24.5 -41t-30 -39t-34 -27t-44.5 -21t-53 -6q-43 0 -93.5 20.5t-88.5 45t-82 45t-76 20.5q-96 0 -145 -133z" />
<glyph unicode="&#xd6;" d="M164 328v755q0 163 83.5 246.5t246.5 83.5h297q164 0 247.5 -83.5t83.5 -246.5v-755q0 -328 -331 -328h-297q-163 0 -246.5 82.5t-83.5 245.5zM254 328q0 -122 58 -181t182 -59h297q126 0 183.5 58.5t57.5 181.5v755q0 125 -57 183.5t-184 58.5h-297q-124 0 -182 -58.5 t-58 -183.5v-755zM375 1757q0 42 11 55t54 13t54.5 -13t11.5 -55q0 -41 -11.5 -54t-54.5 -13t-54 12.5t-11 54.5zM780 1757q0 42 11.5 55t54.5 13t54 -13t11 -55t-11 -54.5t-54 -12.5t-54.5 13t-11.5 54z" />
<glyph unicode="&#xd8;" d="M164 328v755q0 163 83.5 246.5t246.5 83.5h243l82 -2l66 205l84 -27l-62 -190q106 -26 160.5 -106.5t54.5 -209.5v-755q0 -328 -331 -328h-244q-55 0 -82 2l-64 -203l-84 29l58 186q-211 55 -211 314zM254 328q0 -97 35.5 -153.5t111.5 -76.5l390 1227h-297 q-124 0 -182 -58.5t-58 -183.5v-755zM492 88h299q126 0 183.5 58.5t57.5 181.5v755q0 195 -151 232z" />
<glyph unicode="&#xd9;" horiz-adv-x="1306" d="M174 328v1085h90v-1085q0 -122 58 -181t182 -59h297q126 0 183.5 58.5t57.5 181.5v1085h91v-1085q0 -163 -84 -245.5t-248 -82.5h-297q-163 0 -246.5 82.5t-83.5 245.5zM379 1925q0 19 16 35t35 16q20 0 35 -18l256 -285l-41 -41l-285 258q-16 16 -16 35z" />
<glyph unicode="&#xda;" horiz-adv-x="1306" d="M174 328v1085h90v-1085q0 -122 58 -181t182 -59h297q126 0 183.5 58.5t57.5 181.5v1085h91v-1085q0 -163 -84 -245.5t-248 -82.5h-297q-163 0 -246.5 82.5t-83.5 245.5zM543 1673l256 285q15 18 35 18q18 0 34 -16q17 -17 17 -35t-17 -35l-284 -258z" />
<glyph unicode="&#xdb;" horiz-adv-x="1306" d="M174 328v1085h90v-1085q0 -122 58 -181t182 -59h297q126 0 183.5 58.5t57.5 181.5v1085h91v-1085q0 -163 -84 -245.5t-248 -82.5h-297q-163 0 -246.5 82.5t-83.5 245.5zM369 1645l266 307h37l266 -307l-39 -37l-246 247l-245 -247z" />
<glyph unicode="&#xdc;" horiz-adv-x="1306" d="M174 328v1085h90v-1085q0 -122 58 -181t182 -59h297q126 0 183.5 58.5t57.5 181.5v1085h91v-1085q0 -163 -84 -245.5t-248 -82.5h-297q-163 0 -246.5 82.5t-83.5 245.5zM385 1757q0 42 11.5 55t54.5 13t54 -13t11 -55t-11 -54.5t-54 -12.5t-54.5 13t-11.5 54zM791 1757 q0 42 11 55t54 13t54.5 -13t11.5 -55q0 -41 -11.5 -54t-54.5 -13t-54 12.5t-11 54.5z" />
<glyph unicode="&#xdd;" horiz-adv-x="1032" d="M20 1413h103l393 -731l395 731h101l-451 -835v-578h-90v578zM426 1673l256 285q15 18 35 18q19 0 35 -16t16 -35t-16 -35l-285 -258z" />
<glyph unicode="&#xde;" horiz-adv-x="1245" d="M184 0v1413h90v-326h537q163 0 247.5 -83.5t84.5 -245.5v-107q0 -162 -84.5 -244.5t-247.5 -82.5h-537v-324h-90zM274 410h537q127 0 184.5 58t57.5 183v107q0 125 -57.5 183t-184.5 58h-537v-589z" />
<glyph unicode="&#xdf;" horiz-adv-x="1265" d="M174 -236v1319q0 163 83.5 246.5t246.5 83.5h289q161 0 245 -83.5t84 -246.5v-79q0 -208 -135 -283q135 -74 135 -287v-106q0 -162 -83.5 -245t-245.5 -83h-166v88h166q125 0 182 57.5t57 182.5v106q0 125 -54 183.5t-171 58.5h-172v88h172q120 0 172.5 58.5t52.5 181.5 v79q0 126 -58 184t-181 58h-289q-125 0 -182.5 -58t-57.5 -184v-1319h-90z" />
<glyph unicode="&#xe0;" horiz-adv-x="1222" d="M123 295q0 39 8 76t30.5 78.5t57.5 72t95.5 50.5t138.5 20h536v164q0 125 -57.5 183t-181.5 58h-271q-120 0 -175.5 -48.5t-63.5 -149.5h-90q10 140 94.5 213t234.5 73h271q163 0 246 -83t83 -246v-428q0 -163 -83 -245.5t-246 -82.5h-297q-93 0 -161 28.5t-103 74.5 t-50.5 94t-15.5 98zM213 295q0 -101 61.5 -155t178.5 -54h297q124 0 181.5 58.5t57.5 183.5v178h-536q-117 0 -178.5 -53.5t-61.5 -157.5zM399 1618q0 18 17 35q16 16 35 16t34 -18l256 -285l-41 -41l-284 258q-17 17 -17 35z" />
<glyph unicode="&#xe1;" horiz-adv-x="1222" d="M123 295q0 39 8 76t30.5 78.5t57.5 72t95.5 50.5t138.5 20h536v164q0 125 -57.5 183t-181.5 58h-271q-120 0 -175.5 -48.5t-63.5 -149.5h-90q10 140 94.5 213t234.5 73h271q163 0 246 -83t83 -246v-428q0 -163 -83 -245.5t-246 -82.5h-297q-93 0 -161 28.5t-103 74.5 t-50.5 94t-15.5 98zM213 295q0 -101 61.5 -155t178.5 -54h297q124 0 181.5 58.5t57.5 183.5v178h-536q-117 0 -178.5 -53.5t-61.5 -157.5zM502 1366l256 285q15 18 35 18q18 0 34 -16q17 -17 17 -35t-17 -35l-284 -258z" />
<glyph unicode="&#xe2;" horiz-adv-x="1222" d="M123 295q0 39 8 76t30.5 78.5t57.5 72t95.5 50.5t138.5 20h536v164q0 125 -57.5 183t-181.5 58h-271q-120 0 -175.5 -48.5t-63.5 -149.5h-90q10 140 94.5 213t234.5 73h271q163 0 246 -83t83 -246v-428q0 -163 -83 -245.5t-246 -82.5h-297q-93 0 -161 28.5t-103 74.5 t-50.5 94t-15.5 98zM213 295q0 -101 61.5 -155t178.5 -54h297q124 0 181.5 58.5t57.5 183.5v178h-536q-117 0 -178.5 -53.5t-61.5 -157.5zM326 1358l266 307h37l266 -307l-39 -37l-246 248l-245 -248z" />
<glyph unicode="&#xe3;" horiz-adv-x="1222" d="M123 295q0 39 8 76t30.5 78.5t57.5 72t95.5 50.5t138.5 20h536v164q0 125 -57.5 183t-181.5 58h-271q-120 0 -175.5 -48.5t-63.5 -149.5h-90q10 140 94.5 213t234.5 73h271q163 0 246 -83t83 -246v-428q0 -163 -83 -245.5t-246 -82.5h-297q-93 0 -161 28.5t-103 74.5 t-50.5 94t-15.5 98zM213 295q0 -101 61.5 -155t178.5 -54h297q124 0 181.5 58.5t57.5 183.5v178h-536q-117 0 -178.5 -53.5t-61.5 -157.5zM225 1380q29 83 85 133t132 50q47 0 96.5 -21t84.5 -45.5t78.5 -45.5t80.5 -21q78 0 144 135l71 -33q-20 -39 -30 -56t-31 -46.5 t-39 -42.5t-47.5 -24t-63.5 -11q-43 0 -93.5 20.5t-88.5 45t-82 45t-76 20.5q-96 0 -145 -133z" />
<glyph unicode="&#xe4;" horiz-adv-x="1222" d="M123 295q0 39 8 76t30.5 78.5t57.5 72t95.5 50.5t138.5 20h536v164q0 125 -57.5 183t-181.5 58h-271q-120 0 -175.5 -48.5t-63.5 -149.5h-90q10 140 94.5 213t234.5 73h271q163 0 246 -83t83 -246v-428q0 -163 -83 -245.5t-246 -82.5h-297q-93 0 -161 28.5t-103 74.5 t-50.5 94t-15.5 98zM213 295q0 -101 61.5 -155t178.5 -54h297q124 0 181.5 58.5t57.5 183.5v178h-536q-117 0 -178.5 -53.5t-61.5 -157.5zM342 1450q0 42 11.5 55t54.5 13t54 -13t11 -55t-11 -55t-54 -13t-54.5 13t-11.5 55zM748 1450q0 42 11 55t54 13t54.5 -13t11.5 -55 t-11.5 -55t-54.5 -13t-54 13t-11 55z" />
<glyph unicode="&#xe5;" horiz-adv-x="1222" d="M123 295q0 39 8 76t30.5 78.5t57.5 72t95.5 50.5t138.5 20h536v164q0 125 -57.5 183t-181.5 58h-271q-120 0 -175.5 -48.5t-63.5 -149.5h-90q10 140 94.5 213t234.5 73h271q163 0 246 -83t83 -246v-428q0 -163 -83 -245.5t-246 -82.5h-297q-93 0 -161 28.5t-103 74.5 t-50.5 94t-15.5 98zM213 295q0 -101 61.5 -155t178.5 -54h297q124 0 181.5 58.5t57.5 183.5v178h-536q-117 0 -178.5 -53.5t-61.5 -157.5zM471 1481q0 58 40.5 97.5t98.5 39.5t99 -39.5t41 -97.5t-41 -98t-99 -40q-57 0 -98 40t-41 98zM535 1481q0 -31 22 -53.5t53 -22.5 t53.5 22.5t22.5 53.5t-22.5 53t-53.5 22t-53 -22t-22 -53z" />
<glyph unicode="&#xe6;" horiz-adv-x="1900" d="M123 297q0 38 8 74.5t30.5 77.5t57.5 72t95.5 51t138.5 20h465v164q0 125 -59 183t-183 58h-197q-120 0 -175.5 -48.5t-63.5 -149.5h-90q10 140 94.5 213t234.5 73h197q214 0 287 -145q70 145 284 145h221q75 0 134 -18.5t95 -48t59.5 -69.5t32.5 -78.5t9 -79.5 q0 -37 -8 -73t-30.5 -75.5t-58 -69t-96 -48.5t-137.5 -19h-460v-178q0 -134 63.5 -187t214.5 -53h438v-88h-477q-210 0 -286 145q-76 -145 -285 -145h-223q-93 0 -161 28t-103 74.5t-50.5 94.5t-15.5 100zM213 297q0 -103 61.5 -157t178.5 -54h223q242 0 242 233v187h-465 q-117 0 -178.5 -54t-61.5 -155zM1008 592h460q115 0 177.5 49.5t62.5 149.5q0 101 -63 153.5t-177 52.5h-221q-126 0 -182.5 -57.5t-56.5 -183.5v-164z" />
<glyph unicode="&#xe7;" horiz-adv-x="1222" d="M143 328v428q0 163 84 246t248 83h297q307 0 328 -288h-90q-11 105 -67 152.5t-171 47.5h-297q-127 0 -184.5 -58t-57.5 -183v-428q0 -125 57.5 -182.5t184.5 -57.5h297q112 0 169.5 48t68.5 151h90q-11 -140 -94 -213.5t-234 -73.5h-78l-112 -338l-68 19l72 319h-111 q-164 0 -248 82.5t-84 245.5z" />
<glyph unicode="&#xe8;" horiz-adv-x="1204" d="M143 328v428q0 163 84 246t248 83h297q93 0 161 -27.5t103 -72.5t50.5 -92.5t15.5 -99.5q0 -38 -8 -74t-30.5 -75.5t-57.5 -69t-95.5 -49t-138.5 -19.5h-539v-178q0 -125 57.5 -182.5t184.5 -57.5h553v-88h-553q-164 0 -248 82.5t-84 245.5zM233 592h539q116 0 178 50.5 t62 150.5t-62.5 152t-177.5 52h-297q-127 0 -184.5 -58t-57.5 -183v-164zM348 1618q0 18 17 35q16 16 34 16q20 0 35 -18l256 -285l-41 -41l-284 258q-17 17 -17 35z" />
<glyph unicode="&#xe9;" horiz-adv-x="1204" d="M143 328v428q0 163 84 246t248 83h297q93 0 161 -27.5t103 -72.5t50.5 -92.5t15.5 -99.5q0 -38 -8 -74t-30.5 -75.5t-57.5 -69t-95.5 -49t-138.5 -19.5h-539v-178q0 -125 57.5 -182.5t184.5 -57.5h553v-88h-553q-164 0 -248 82.5t-84 245.5zM233 592h539q116 0 178 50.5 t62 150.5t-62.5 152t-177.5 52h-297q-127 0 -184.5 -58t-57.5 -183v-164zM492 1366l256 285q15 18 34 18t35 -16q17 -17 17 -35t-17 -35l-285 -258z" />
<glyph unicode="&#xea;" horiz-adv-x="1204" d="M143 328v428q0 163 84 246t248 83h297q93 0 161 -27.5t103 -72.5t50.5 -92.5t15.5 -99.5q0 -38 -8 -74t-30.5 -75.5t-57.5 -69t-95.5 -49t-138.5 -19.5h-539v-178q0 -125 57.5 -182.5t184.5 -57.5h553v-88h-553q-164 0 -248 82.5t-84 245.5zM233 592h539q116 0 178 50.5 t62 150.5t-62.5 152t-177.5 52h-297q-127 0 -184.5 -58t-57.5 -183v-164zM317 1358l267 307h37l266 -307l-39 -37l-246 248l-246 -248z" />
<glyph unicode="&#xeb;" horiz-adv-x="1204" d="M143 328v428q0 163 84 246t248 83h297q93 0 161 -27.5t103 -72.5t50.5 -92.5t15.5 -99.5q0 -38 -8 -74t-30.5 -75.5t-57.5 -69t-95.5 -49t-138.5 -19.5h-539v-178q0 -125 57.5 -182.5t184.5 -57.5h553v-88h-553q-164 0 -248 82.5t-84 245.5zM233 592h539q116 0 178 50.5 t62 150.5t-62.5 152t-177.5 52h-297q-127 0 -184.5 -58t-57.5 -183v-164zM334 1450q0 42 11 55t54 13t54.5 -13t11.5 -55t-11.5 -55t-54.5 -13t-54 13t-11 55zM739 1450q0 42 11.5 55t54.5 13t54 -13t11 -55t-11 -55t-54 -13t-54.5 13t-11.5 55z" />
<glyph unicode="&#xec;" horiz-adv-x="704" d="M92 0v86h248v913h-248v86h338v-999h223v-86h-561zM119 1618q0 19 16 35t35 16q20 0 35 -18l256 -285l-41 -41l-285 258q-16 16 -16 35z" />
<glyph unicode="&#xed;" horiz-adv-x="704" d="M92 0v86h248v913h-248v86h338v-999h223v-86h-561zM180 1366l256 285q15 18 35 18q19 0 35 -16t16 -35t-16 -35l-285 -258z" />
<glyph unicode="&#xee;" horiz-adv-x="704" d="M68 1358l266 307h37l266 -307l-39 -37l-246 248l-246 -248zM92 0v86h248v913h-248v86h338v-999h223v-86h-561z" />
<glyph unicode="&#xef;" horiz-adv-x="704" d="M63 1450q0 42 11.5 55t54.5 13t54.5 -13t11.5 -55t-11.5 -55t-54.5 -13t-54.5 13t-11.5 55zM92 0v86h248v913h-248v86h338v-999h223v-86h-561zM469 1450q0 42 11.5 55t54.5 13t54 -13t11 -55t-11 -55t-54 -13t-54.5 13t-11.5 55z" />
<glyph unicode="&#xf0;" horiz-adv-x="1265" d="M143 328v428q0 163 84 246t248 83h297q165 0 240 -90v293h-381v82h381v146h90v-146h198v-82h-198v-960q0 -163 -83.5 -245.5t-246.5 -82.5h-297q-164 0 -248 82.5t-84 245.5zM233 328q0 -125 57.5 -182.5t184.5 -57.5h297q124 0 182 58t58 182v448q0 221 -240 221h-297 q-127 0 -184.5 -58t-57.5 -183v-428z" />
<glyph unicode="&#xf1;" d="M164 0v756q0 163 84 246t248 83h295q164 0 247.5 -83t83.5 -246v-756h-90v756q0 125 -57 183t-184 58h-295q-127 0 -184.5 -58t-57.5 -183v-756h-90zM256 1380q29 83 85 133t132 50q47 0 96.5 -21t84.5 -45.5t78.5 -45.5t80.5 -21q44 0 78 35.5t65 99.5l72 -33 q-20 -39 -30 -56t-31 -46.5t-39 -42.5t-47.5 -24t-63.5 -11q-43 0 -93.5 20.5t-88.5 45t-82 45t-76 20.5q-96 0 -145 -133z" />
<glyph unicode="&#xf2;" horiz-adv-x="1245" d="M143 328v428q0 163 84 246t248 83h297q163 0 246.5 -83t83.5 -246v-428q0 -163 -83.5 -245.5t-246.5 -82.5h-297q-164 0 -248 82.5t-84 245.5zM233 328q0 -125 57.5 -182.5t184.5 -57.5h297q124 0 182 58t58 182v428q0 125 -58 183t-182 58h-297q-127 0 -184.5 -58 t-57.5 -183v-428zM369 1618q0 19 16 35t35 16q20 0 35 -18l256 -285l-41 -41l-285 258q-16 16 -16 35z" />
<glyph unicode="&#xf3;" horiz-adv-x="1245" d="M143 328v428q0 163 84 246t248 83h297q163 0 246.5 -83t83.5 -246v-428q0 -163 -83.5 -245.5t-246.5 -82.5h-297q-164 0 -248 82.5t-84 245.5zM233 328q0 -125 57.5 -182.5t184.5 -57.5h297q124 0 182 58t58 182v428q0 125 -58 183t-182 58h-297q-127 0 -184.5 -58 t-57.5 -183v-428zM492 1366l256 285q15 18 34 18t35 -16q17 -17 17 -35t-17 -35l-285 -258z" />
<glyph unicode="&#xf4;" horiz-adv-x="1245" d="M143 328v428q0 163 84 246t248 83h297q163 0 246.5 -83t83.5 -246v-428q0 -163 -83.5 -245.5t-246.5 -82.5h-297q-164 0 -248 82.5t-84 245.5zM233 328q0 -125 57.5 -182.5t184.5 -57.5h297q124 0 182 58t58 182v428q0 125 -58 183t-182 58h-297q-127 0 -184.5 -58 t-57.5 -183v-428zM338 1358l266 307h37l266 -307l-39 -37l-245 248l-246 -248z" />
<glyph unicode="&#xf5;" horiz-adv-x="1245" d="M143 328v428q0 163 84 246t248 83h297q163 0 246.5 -83t83.5 -246v-428q0 -163 -83.5 -245.5t-246.5 -82.5h-297q-164 0 -248 82.5t-84 245.5zM233 328q0 -125 57.5 -182.5t184.5 -57.5h297q124 0 182 58t58 182v428q0 125 -58 183t-182 58h-297q-127 0 -184.5 -58 t-57.5 -183v-428zM236 1380q29 83 85 133t132 50q47 0 96.5 -21t84.5 -45.5t78.5 -45.5t80.5 -21q44 0 78 35.5t65 99.5l72 -33q-20 -39 -30 -56t-31 -46.5t-39 -42.5t-47.5 -24t-63.5 -11q-43 0 -93.5 20.5t-88.5 45t-82 45t-76 20.5q-97 0 -146 -133z" />
<glyph unicode="&#xf6;" horiz-adv-x="1245" d="M143 328v428q0 163 84 246t248 83h297q163 0 246.5 -83t83.5 -246v-428q0 -163 -83.5 -245.5t-246.5 -82.5h-297q-164 0 -248 82.5t-84 245.5zM233 328q0 -125 57.5 -182.5t184.5 -57.5h297q124 0 182 58t58 182v428q0 125 -58 183t-182 58h-297q-127 0 -184.5 -58 t-57.5 -183v-428zM354 1450q0 42 11.5 55t54.5 13t54 -13t11 -55t-11 -55t-54 -13t-54.5 13t-11.5 55zM760 1450q0 42 11 55t54 13t54.5 -13t11.5 -55t-11.5 -55t-54.5 -13t-54 13t-11 55z" />
<glyph unicode="&#xf8;" horiz-adv-x="1245" d="M143 328v428q0 163 83.5 246t246.5 83h266l68 211l84 -26l-60 -189q133 -12 202 -95.5t69 -229.5v-428q0 -328 -332 -328h-281l-63 -199l-84 27l55 178q-113 15 -183.5 94t-70.5 228zM233 328q0 -225 191 -236l289 905h-236q-128 0 -186 -57.5t-58 -183.5v-428zM516 88 h254q127 0 184.5 57.5t57.5 182.5v428q0 230 -207 239z" />
<glyph unicode="&#xf9;" d="M164 328v757h90v-757q0 -125 57.5 -182.5t184.5 -57.5h297q124 0 181.5 57.5t57.5 182.5v757h90v-757q0 -163 -83 -245.5t-246 -82.5h-297q-164 0 -248 83t-84 245zM369 1618q0 19 16 35t35 16q20 0 35 -18l256 -285l-41 -41l-285 258q-16 16 -16 35z" />
<glyph unicode="&#xfa;" d="M164 328v757h90v-757q0 -125 57.5 -182.5t184.5 -57.5h297q124 0 181.5 57.5t57.5 182.5v757h90v-757q0 -163 -83 -245.5t-246 -82.5h-297q-164 0 -248 83t-84 245zM532 1366l256 285q15 18 35 18q19 0 35 -16t16 -35t-16 -35l-285 -258z" />
<glyph unicode="&#xfb;" d="M164 328v757h90v-757q0 -125 57.5 -182.5t184.5 -57.5h297q124 0 181.5 57.5t57.5 182.5v757h90v-757q0 -163 -83 -245.5t-246 -82.5h-297q-164 0 -248 83t-84 245zM358 1358l267 307h37l266 -307l-39 -37l-246 248l-246 -248z" />
<glyph unicode="&#xfc;" d="M164 328v757h90v-757q0 -125 57.5 -182.5t184.5 -57.5h297q124 0 181.5 57.5t57.5 182.5v757h90v-757q0 -163 -83 -245.5t-246 -82.5h-297q-164 0 -248 83t-84 245zM375 1450q0 42 11 55t54 13t54.5 -13t11.5 -55t-11.5 -55t-54.5 -13t-54 13t-11 55zM780 1450 q0 42 11.5 55t54.5 13t54 -13t11 -55t-11 -55t-54 -13t-54.5 13t-11.5 55z" />
<glyph unicode="&#xfd;" horiz-adv-x="1046" d="M61 1085h93l190 -690q16 -58 32 -99t40 -78t59 -56t80 -19h98l219 942h93l-363 -1556h-90l121 526h-78q-66 0 -116 25t-84.5 75.5t-56 104.5t-44.5 135zM434 1366l256 285q15 18 35 18q19 0 35 -16t16 -35t-16 -35l-285 -258z" />
<glyph unicode="&#xfe;" horiz-adv-x="1275" d="M174 -434v1950h90v-521q72 90 242 90h297q330 0 330 -329v-428q0 -328 -330 -328h-297q-168 0 -242 90v-524h-90zM264 309q0 -115 61 -168t181 -53h297q125 0 182 57.5t57 182.5v428q0 125 -57 183t-182 58h-297q-242 0 -242 -221v-467z" />
<glyph unicode="&#xff;" horiz-adv-x="1046" d="M61 1085h93l190 -690q16 -58 32 -99t40 -78t59 -56t80 -19h98l219 942h93l-363 -1556h-90l121 526h-78q-66 0 -116 25t-84.5 75.5t-56 104.5t-44.5 135zM254 1450q0 42 11 55t54 13t54.5 -13t11.5 -55t-11.5 -55t-54.5 -13t-54 13t-11 55zM659 1450q0 42 11.5 55t54.5 13 t54.5 -13t11.5 -55t-11.5 -55t-54.5 -13t-54.5 13t-11.5 55z" />
<glyph unicode="&#x152;" horiz-adv-x="1826" d="M164 328v755q0 163 83.5 246.5t246.5 83.5h1230v-86h-677v-557h503v-86h-503v-598h677v-86h-1230q-163 0 -246.5 82.5t-83.5 245.5zM254 328q0 -123 58.5 -182.5t181.5 -59.5h462v1241h-462q-124 0 -182 -60t-58 -184v-755z" />
<glyph unicode="&#x153;" horiz-adv-x="1918" d="M143 328v428q0 163 84 246t248 83h219q214 0 287 -147q67 147 287 147h219q93 0 161 -28.5t103 -75t50.5 -95t15.5 -100.5q0 -297 -394 -297h-397v-161q0 -125 57.5 -182.5t184.5 -57.5h475v-88h-475q-221 0 -287 147q-72 -147 -287 -147h-219q-164 0 -248 82.5 t-84 245.5zM233 328q0 -125 57.5 -182.5t184.5 -57.5h219q126 0 183 57.5t57 182.5v428q0 125 -58 183t-182 58h-219q-127 0 -184.5 -58t-57.5 -183v-428zM1026 578h461q114 0 176.5 52.5t62.5 155.5q0 102 -62 156.5t-177 54.5h-219q-126 0 -184 -56.5t-58 -178.5v-184z " />
<glyph unicode="&#x178;" horiz-adv-x="1032" d="M20 1413h103l393 -731l395 731h101l-451 -835v-578h-90v578zM248 1757q0 42 11 55t54 13t54.5 -13t11.5 -55q0 -41 -11.5 -54t-54.5 -13t-54 12.5t-11 54.5zM653 1757q0 42 11.5 55t54.5 13t54 -13t11 -55t-11 -54.5t-54 -12.5t-54.5 13t-11.5 54z" />
<glyph unicode="&#x2c6;" horiz-adv-x="774" d="M102 1358l267 307h37l266 -307l-39 -37l-246 248l-246 -248z" />
<glyph unicode="&#x2dc;" horiz-adv-x="976" d="M102 1380q29 83 85 133t132 50q47 0 96.5 -21t84.5 -45.5t78.5 -45.5t80.5 -21q78 0 144 135l71 -33q-15 -30 -21 -40.5t-21 -35.5t-24 -35t-26 -27t-33 -23.5t-38 -12.5t-47 -6q-43 0 -93.5 20.5t-88.5 45t-82 45t-76 20.5q-97 0 -146 -133z" />
<glyph unicode="&#x2000;" horiz-adv-x="988" />
<glyph unicode="&#x2001;" horiz-adv-x="1976" />
<glyph unicode="&#x2002;" horiz-adv-x="988" />
<glyph unicode="&#x2003;" horiz-adv-x="1976" />
<glyph unicode="&#x2004;" horiz-adv-x="658" />
<glyph unicode="&#x2005;" horiz-adv-x="494" />
<glyph unicode="&#x2006;" horiz-adv-x="329" />
<glyph unicode="&#x2007;" horiz-adv-x="329" />
<glyph unicode="&#x2008;" horiz-adv-x="247" />
<glyph unicode="&#x2009;" horiz-adv-x="395" />
<glyph unicode="&#x200a;" horiz-adv-x="109" />
<glyph unicode="&#x2010;" horiz-adv-x="1083" d="M164 571v88h756v-88h-756z" />
<glyph unicode="&#x2011;" horiz-adv-x="1083" d="M164 571v88h756v-88h-756z" />
<glyph unicode="&#x2012;" horiz-adv-x="1083" d="M164 571v88h756v-88h-756z" />
<glyph unicode="&#x2013;" horiz-adv-x="1284" d="M164 571v88h956v-88h-956z" />
<glyph unicode="&#x2014;" horiz-adv-x="1832" d="M164 571v88h1505v-88h-1505z" />
<glyph unicode="&#x2018;" horiz-adv-x="460" d="M123 1073q0 26 20 66l148 274l47 -22l-92 -232q24 -8 41.5 -31t17.5 -51q0 -37 -27.5 -63.5t-66.5 -26.5q-37 0 -62.5 25.5t-25.5 60.5z" />
<glyph unicode="&#x2019;" horiz-adv-x="460" d="M123 1010l92 231q-24 8 -41.5 31t-17.5 51q0 37 27.5 63.5t66.5 26.5q37 0 62.5 -25.5t25.5 -60.5q0 -23 -21 -65l-147 -275z" />
<glyph unicode="&#x201a;" horiz-adv-x="460" d="M123 -225l92 233q-26 6 -43.5 29t-17.5 53q0 40 27.5 65t66.5 25q37 0 63.5 -26.5t26.5 -61.5q0 -27 -21 -65l-149 -275z" />
<glyph unicode="&#x201c;" horiz-adv-x="862" d="M123 1073q0 26 20 66l148 274l47 -22l-92 -232q24 -8 41.5 -31t17.5 -51q0 -37 -27.5 -63.5t-66.5 -26.5q-37 0 -62.5 25.5t-25.5 60.5zM524 1073q0 24 21 66l147 274l47 -22l-92 -232q24 -8 42 -31t18 -51q0 -37 -27.5 -63.5t-67.5 -26.5q-37 0 -62.5 25.5t-25.5 60.5z " />
<glyph unicode="&#x201d;" horiz-adv-x="862" d="M123 1010l92 231q-24 8 -41.5 31t-17.5 51q0 37 27.5 63.5t66.5 26.5q37 0 62.5 -25.5t25.5 -60.5q0 -23 -21 -65l-147 -275zM524 1010l92 231q-24 8 -41.5 31t-17.5 51q0 37 27.5 63.5t66.5 26.5q37 0 62.5 -25.5t25.5 -60.5q0 -25 -20 -65l-148 -275z" />
<glyph unicode="&#x201e;" horiz-adv-x="860" d="M123 -225l92 233q-26 6 -43.5 29t-17.5 53q0 40 27.5 65t66.5 25q37 0 63.5 -26.5t26.5 -61.5q0 -27 -21 -65l-149 -275zM522 -225l92 233q-26 6 -43.5 29t-17.5 53q0 40 27.5 65t66.5 25q37 0 63.5 -26.5t26.5 -61.5q0 -29 -20 -65l-150 -275z" />
<glyph unicode="&#x2022;" horiz-adv-x="630" d="M184 709q0 54 39 92.5t94 38.5q53 0 91 -38.5t38 -92.5q0 -55 -38 -94.5t-91 -39.5q-55 0 -94 39t-39 95z" />
<glyph unicode="&#x2026;" horiz-adv-x="1472" d="M123 88q0 37 25.5 63.5t62.5 26.5t63.5 -26.5t26.5 -63.5t-26.5 -62.5t-63.5 -25.5t-62.5 25.5t-25.5 62.5zM647 88q0 37 25.5 63.5t62.5 26.5t63.5 -26.5t26.5 -63.5t-26.5 -62.5t-63.5 -25.5t-62.5 25.5t-25.5 62.5zM1171 88q0 37 27 63.5t64 26.5q35 0 61.5 -26.5 t26.5 -63.5q0 -36 -26 -62t-62 -26q-37 0 -64 26t-27 62z" />
<glyph unicode="&#x202f;" horiz-adv-x="395" />
<glyph unicode="&#x2039;" horiz-adv-x="821" d="M164 582v65l452 414l41 -51l-370 -394v-4l370 -393l-41 -51z" />
<glyph unicode="&#x203a;" horiz-adv-x="821" d="M164 219l373 393v4l-373 394l41 51l452 -414v-65l-452 -414z" />
<glyph unicode="&#x205f;" horiz-adv-x="494" />
<glyph unicode="&#x20ac;" horiz-adv-x="1415" d="M102 481v86h195v205h-195v88h195v223q0 163 83 246.5t247 83.5h293q331 0 331 -330v-32h-90v32q0 127 -57 184.5t-184 57.5h-293q-126 0 -183 -58t-57 -184v-223h420v-88h-420v-205h420v-86h-420v-153q0 -125 57 -182.5t183 -57.5h293q127 0 184 57.5t57 182.5v34h90v-34 q0 -162 -84 -245t-247 -83h-293q-330 0 -330 328v153h-195z" />
<glyph unicode="&#x2122;" horiz-adv-x="1583" d="M123 1339v74h524v-74h-223v-628h-80v628h-221zM776 711v702h103l174 -436h8l174 436h102v-702h-80v544l-161 -393h-78l-162 393v-544h-80z" />
<glyph unicode="&#x25fc;" horiz-adv-x="1085" d="M0 0v1085h1085v-1085h-1085z" />
</font>
</defs>
</svg>
